<svg xmlns="http://www.w3.org/2000/svg" viewBox="0 0 114.81 33.6"><defs><style>.cls-1{fill:#fff;}</style></defs><g id="Layer_2" data-name="Layer 2"><g id="Layer_1-2" data-name="Layer 1"><path class="cls-1" d="M0,0H5.28V14.16L12,0h5.28L11,12.34,17.38,33.6H11.86l-4.47-15L5.28,22.9V33.6H0Z"/><path class="cls-1" d="M24,0H31.1l5.48,33.6H31.3l-1-6.67V27h-6l-1,6.58h-4.9Zm5.76,22.46L27.36,5.86h-.1L25,22.46Z"/><path class="cls-1" d="M39.12,0h6.62l5.14,20.11H51V0h4.71V33.6H50.25L43.92,9.07h-.1V33.6h-4.7Z"/><path class="cls-1" d="M59.61,0h8c2.72,0,4.71.63,6,1.9s1.88,3.2,1.88,5.83V9.07a9.38,9.38,0,0,1-.84,4.23A5,5,0,0,1,72,15.65v.09q3.93,1.35,3.93,7v2.88a8,8,0,0,1-2,5.93,8.09,8.09,0,0,1-6,2H59.61ZM67,13.68a3.13,3.13,0,0,0,2.37-.82,3.82,3.82,0,0,0,.8-2.73V8.26a4.26,4.26,0,0,0-.65-2.64,2.43,2.43,0,0,0-2-.82H64.89v8.88Zm1,15.12A2.66,2.66,0,0,0,70,28.06a3.85,3.85,0,0,0,.67-2.57V22.56a4.84,4.84,0,0,0-.79-3.19,3.36,3.36,0,0,0-2.61-.89H64.89V28.8Z"/><path class="cls-1" d="M83.08,0h7.16l5.47,33.6H90.43l-1-6.67V27h-6l-1,6.58h-4.9Zm5.77,22.46L86.49,5.86H86.4l-2.31,16.6Z"/><path class="cls-1" d="M98.25,0h6.63L110,20.11h.1V0h4.7V33.6h-5.42L103.05,9.07H103V33.6H98.25Z"/></g></g></svg>