<svg xmlns="http://www.w3.org/2000/svg" viewBox="0 0 39.84 33.79"><defs><style>.cls-1{fill:#707071;}</style></defs><g id="Layer_2" data-name="Layer 2"><g id="Layer_1-2" data-name="Layer 1"><path class="cls-1" d="M5.52,4.9H0V.1H16.32V4.9H10.8V33.7H5.52Z"/><path class="cls-1" d="M12.48,33.6V28.8A7,7,0,0,0,14.2,29a3.16,3.16,0,0,0,2.36-.79,3.38,3.38,0,0,0,.76-2.42V0H22.6V25.63q0,4.13-1.89,6.15c-1.27,1.34-3.19,2-5.79,2A13.06,13.06,0,0,1,12.48,33.6Z"/><path class="cls-1" d="M23.52,0h8q4.08,0,6,1.9c1.24,1.26,1.87,3.2,1.87,5.83V9.07a9.25,9.25,0,0,1-.84,4.23,5,5,0,0,1-2.57,2.35v.09c2.62.9,3.94,3.24,3.94,7v2.88a8,8,0,0,1-2,5.93,8.12,8.12,0,0,1-6,2h-8.3Zm7.34,13.68a3.15,3.15,0,0,0,2.38-.82A3.87,3.87,0,0,0,34,10.13V8.26a4.26,4.26,0,0,0-.65-2.64,2.43,2.43,0,0,0-2-.82H28.8v8.88Zm1,15.12a2.64,2.64,0,0,0,2.06-.74,3.84,3.84,0,0,0,.68-2.57V22.56a4.83,4.83,0,0,0-.8-3.19,3.34,3.34,0,0,0-2.61-.89H28.8V28.8Z"/></g></g></svg>